<svg width="50" height="50" viewBox="0 0 50 50" fill="none" xmlns="http://www.w3.org/2000/svg">
<rect width="50" height="50" fill="white"/>
<path opacity="0.994" fill-rule="evenodd" clip-rule="evenodd" d="M24.1797 4.96094C24.7005 4.96094 25.2213 4.96094 25.7422 4.96094C26.0294 5.05294 26.3159 5.17013 26.6016 5.3125C31.4586 8.14473 36.3284 10.9572 41.2109 13.75C41.6757 14.0711 42.0403 14.4748 42.3047 14.9609C39.9455 16.3358 37.5757 17.6899 35.1953 19.0234C33.0503 15.54 29.9253 13.5738 25.8203 13.125C20.3753 13.0273 16.456 15.4102 14.0625 20.2734C12.5868 23.9243 12.8081 27.4659 14.7266 30.8984C12.3568 32.2526 9.98698 33.6068 7.61719 34.9609C7.40698 34.6311 7.26376 34.2666 7.1875 33.8672C7.13541 27.9297 7.13541 21.9922 7.1875 16.0547C7.39254 15.0843 7.90035 14.316 8.71094 13.75C13.5935 10.9572 18.4633 8.14473 23.3203 5.3125C23.606 5.17013 23.8925 5.05294 24.1797 4.96094Z" fill="#659AD2"/>
<path fill-rule="evenodd" clip-rule="evenodd" d="M35.1953 19.0234C33.5027 20.0522 31.7839 21.0418 30.0391 21.9921C29.0089 20.2504 27.4725 19.2739 25.4297 19.0625C22.4351 19.0163 20.3908 20.3835 19.2969 23.164C18.8201 24.8442 19.0154 26.4327 19.8828 27.9296C20.9898 29.7735 22.6305 30.763 24.8047 30.8984C26.6017 30.877 28.1252 30.2259 29.375 28.9453C29.6369 28.6289 29.8582 28.2904 30.0391 27.9296C31.7839 28.88 33.5027 29.8696 35.1953 30.8984C33.3989 33.8768 30.7948 35.7649 27.3828 36.5625C22.5271 37.3749 18.5558 35.8775 15.4687 32.0703C15.1815 31.7039 14.9341 31.3132 14.7266 30.8984C12.8081 27.4659 12.5868 23.9243 14.0625 20.2734C16.456 15.4101 20.3753 13.0273 25.8203 13.125C29.9253 13.5738 33.0503 15.54 35.1953 19.0234Z" fill="#FEFEFE"/>
<path opacity="0.996" fill-rule="evenodd" clip-rule="evenodd" d="M42.3047 14.9609C42.5149 15.2908 42.6581 15.6553 42.7344 16.0547C42.7865 21.9922 42.7865 27.9297 42.7344 33.8672C42.6581 34.2666 42.5149 34.6311 42.3047 34.9609C39.9455 33.5861 37.5757 32.232 35.1953 30.8984C33.5027 29.8696 31.7839 28.8801 30.0391 27.9297C28.4377 26.9685 26.8231 26.018 25.1953 25.0781C25.0943 25.0398 24.9901 25.0268 24.8828 25.0391C26.6016 24.0234 28.3203 23.0078 30.0391 21.9922C31.7839 21.0418 33.5027 20.0523 35.1953 19.0234C37.5757 17.6899 39.9455 16.3358 42.3047 14.9609Z" fill="#01599C"/>
<path fill-rule="evenodd" clip-rule="evenodd" d="M30.0391 21.9922C28.3203 23.0078 26.6016 24.0235 24.8828 25.0391C23.19 25.9635 21.5233 26.927 19.8828 27.9297C19.0154 26.4328 18.8201 24.8443 19.2969 23.1641C20.3908 20.3835 22.4351 19.0164 25.4297 19.0625C27.4725 19.2739 29.0089 20.2505 30.0391 21.9922Z" fill="#659AD2"/>
<path fill-rule="evenodd" clip-rule="evenodd" d="M35.5078 24.3359H36.7578V25.5859H35.5078C35.5078 25.5859 35.5078 26.4974 35.5078 26.9141C35.0651 26.9141 34.6224 26.9141 34.1797 26.9141C34.1797 26.4713 34.1797 26.0287 34.1797 25.5859C33.737 25.5859 33.2943 25.5859 32.8516 25.5859C32.8516 25.1693 32.8516 24.7526 32.8516 24.3359C33.2943 24.3359 33.737 24.3359 34.1797 24.3359C34.1797 23.8932 34.1797 23.4505 34.1797 23.0078C34.6224 23.0078 35.0651 23.0078 35.5078 23.0078C35.5078 23.4245 35.5078 24.3359 35.5078 24.3359Z" fill="#FDFEFE"/>
<path fill-rule="evenodd" clip-rule="evenodd" d="M39.1016 25.5859H37.8516V24.3359H39.1016C39.1016 24.3359 39.1016 23.4245 39.1016 23.0078C39.5443 23.0078 39.987 23.0078 40.4297 23.0078C40.4297 23.4505 40.4297 23.8932 40.4297 24.3359C40.8724 24.3359 41.3151 24.3359 41.7578 24.3359C41.7578 24.7526 41.7578 25.1693 41.7578 25.5859C41.3151 25.5859 40.8724 25.5859 40.4297 25.5859C40.4297 26.0287 40.4297 26.4713 40.4297 26.9141C39.987 26.9141 39.5443 26.9141 39.1016 26.9141C39.1016 26.4974 39.1016 25.5859 39.1016 25.5859Z" fill="#FDFEFE"/>
<path fill-rule="evenodd" clip-rule="evenodd" d="M24.8828 25.039C24.9901 25.0267 25.0943 25.0398 25.1953 25.0781C26.8231 26.0179 28.4377 26.9685 30.0391 27.9296C29.8582 28.2904 29.6369 28.6289 29.375 28.9453C28.1252 30.2259 26.6017 30.877 24.8047 30.8984C22.6305 30.763 20.9898 29.7735 19.8828 27.9296C21.5233 26.9269 23.19 25.9634 24.8828 25.039Z" fill="#014482"/>
<path opacity="0.996" fill-rule="evenodd" clip-rule="evenodd" d="M14.7266 30.8984C14.9341 31.3133 15.1815 31.7039 15.4688 32.0703C18.5558 35.8776 22.5271 37.3749 27.3828 36.5625C30.7948 35.7649 33.3989 33.8769 35.1953 30.8984C37.5757 32.232 39.9455 33.5861 42.3047 34.9609C42.0403 35.4471 41.6757 35.8508 41.2109 36.1719C36.3284 38.9646 31.4586 41.7771 26.6016 44.6094C26.3159 44.7517 26.0294 44.8689 25.7422 44.9609C25.2213 44.9609 24.7005 44.9609 24.1797 44.9609C23.8925 44.8689 23.606 44.7517 23.3203 44.6094C18.4633 41.7771 13.5935 38.9646 8.71094 36.1719C8.24791 35.8523 7.88333 35.4487 7.61719 34.9609C9.98698 33.6068 12.3568 32.2526 14.7266 30.8984Z" fill="#004482"/>
</svg>
