<svg width="50" height="50" viewBox="0 0 50 50" fill="none" xmlns="http://www.w3.org/2000/svg">
<rect width="50" height="50" fill="white"/>
<path opacity="0.997" fill-rule="evenodd" clip-rule="evenodd" d="M24.2578 4.96094C24.7266 4.96094 25.1953 4.96094 25.6641 4.96094C26.2343 5.13878 26.7812 5.38618 27.3047 5.70312C31.9013 8.37912 36.5107 11.0354 41.1328 13.6719C41.6703 13.988 42.087 14.4177 42.3828 14.9609C39.9891 16.3141 37.5933 17.6684 35.1953 19.0234C32.3341 14.6115 28.2716 12.6974 23.0078 13.2812C18.1831 14.3298 15.0191 17.2073 13.5156 21.9141C12.7823 25.0658 13.186 28.0606 14.7266 30.8984C12.312 32.2191 9.9162 33.5733 7.53906 34.9609C7.36244 34.6462 7.24525 34.3076 7.1875 33.9453C7.13542 27.9557 7.13542 21.9662 7.1875 15.9766C7.38585 14.9716 7.91971 14.2034 8.78906 13.6719C13.5807 10.9115 18.3724 8.15104 23.1641 5.39062C23.528 5.22204 23.8926 5.07881 24.2578 4.96094Z" fill="#B14796"/>
<path fill-rule="evenodd" clip-rule="evenodd" d="M35.1953 19.0235C33.4984 20.0415 31.7797 21.0311 30.0391 21.9922C28.6052 19.8043 26.5739 18.8538 23.9453 19.1407C20.5663 20.046 18.9647 22.2464 19.1406 25.7422C19.2425 26.504 19.4899 27.2072 19.8828 27.8516C20.9877 29.7593 22.6544 30.7488 24.8828 30.8204C27.1759 30.7946 28.8947 29.805 30.0391 27.8516C31.7989 28.8056 33.5177 29.8212 35.1953 30.8985C32.1173 35.5853 27.7943 37.4472 22.2266 36.4844C18.9762 35.6151 16.4762 33.7532 14.7266 30.8985C13.186 28.0607 12.7823 25.0658 13.5156 21.9141C15.0191 17.2074 18.1831 14.3298 23.0078 13.2813C28.2716 12.6975 32.3341 14.6115 35.1953 19.0235Z" fill="#FEFEFE"/>
<path fill-rule="evenodd" clip-rule="evenodd" d="M42.3828 14.9609C42.5381 15.2835 42.6553 15.622 42.7344 15.9766C42.7865 21.9662 42.7865 27.9557 42.7344 33.9453C42.6851 34.3548 42.5418 34.7195 42.3047 35.0391C39.996 33.5659 37.6262 32.1857 35.1953 30.8984C33.5177 29.8212 31.7989 28.8055 30.0391 27.8516C28.3651 26.8546 26.6724 25.891 24.9609 24.9609C26.652 23.9741 28.3446 22.9845 30.0391 21.9922C31.7797 21.031 33.4984 20.0415 35.1953 19.0234C37.5933 17.6684 39.9891 16.3141 42.3828 14.9609Z" fill="#962C87"/>
<path fill-rule="evenodd" clip-rule="evenodd" d="M30.0391 21.9921C28.3446 22.9845 26.652 23.9741 24.9609 24.9609C23.2555 25.9046 21.5628 26.8682 19.8828 27.8515C19.4899 27.2071 19.2425 26.5039 19.1406 25.7421C18.9647 22.2464 20.5662 20.0459 23.9453 19.1406C26.5739 18.8537 28.6052 19.8043 30.0391 21.9921Z" fill="#B14796"/>
<path fill-rule="evenodd" clip-rule="evenodd" d="M40.1172 24.2578C39.8047 24.2578 39.4922 24.2578 39.1797 24.2578C39.1797 24.7526 39.1797 25.2474 39.1797 25.7422C39.4922 25.7422 39.8047 25.7422 40.1172 25.7422C40.1172 26.1328 40.1172 26.5234 40.1172 26.9141C39.8047 26.9141 39.4922 26.9141 39.1797 26.9141C39.1797 27.2266 39.1797 27.5391 39.1797 27.8516C38.7891 27.8516 38.3984 27.8516 38.0078 27.8516C38.0078 27.5391 38.0078 27.2266 38.0078 26.9141C37.5391 26.9141 37.0703 26.9141 36.6016 26.9141C36.6016 27.2266 36.6016 27.5391 36.6016 27.8516C36.2109 27.8516 35.8203 27.8516 35.4297 27.8516C35.4297 27.5391 35.4297 27.2266 35.4297 26.9141C35.1172 26.9141 34.8047 26.9141 34.4922 26.9141C34.4922 26.5234 34.4922 26.1328 34.4922 25.7422C34.8047 25.7422 35.1172 25.7422 35.4297 25.7422C35.4297 25.2474 35.4297 24.7526 35.4297 24.2578C35.1172 24.2578 34.8047 24.2578 34.4922 24.2578C34.4922 23.8672 34.4922 23.4766 34.4922 23.0859C34.8047 23.0859 35.1172 23.0859 35.4297 23.0859C35.4297 22.7734 35.4297 22.4609 35.4297 22.1484C35.8203 22.1484 36.2109 22.1484 36.6016 22.1484C36.6016 22.4609 36.6016 22.7734 36.6016 23.0859C37.0703 23.0859 37.5391 23.0859 38.0078 23.0859C38.0078 22.7734 38.0078 22.4609 38.0078 22.1484C38.3984 22.1484 38.7891 22.1484 39.1797 22.1484C39.1797 22.4609 39.1797 22.7734 39.1797 23.0859C39.4922 23.0859 39.8047 23.0859 40.1172 23.0859C40.1172 23.4766 40.1172 23.8672 40.1172 24.2578Z" fill="#FDFBFC"/>
<path fill-rule="evenodd" clip-rule="evenodd" d="M36.6016 24.2578C37.0703 24.2578 37.5391 24.2578 38.0078 24.2578C38.0078 24.7526 38.0078 25.2474 38.0078 25.7422C37.5391 25.7422 37.0703 25.7422 36.6016 25.7422C36.6016 25.2474 36.6016 24.7526 36.6016 24.2578Z" fill="#9A358B"/>
<path fill-rule="evenodd" clip-rule="evenodd" d="M24.9609 24.9609C26.6724 25.891 28.3651 26.8546 30.0391 27.8516C28.8947 29.8049 27.1759 30.7945 24.8828 30.8203C22.6544 30.7487 20.9877 29.7592 19.8828 27.8516C21.5628 26.8683 23.2555 25.9047 24.9609 24.9609Z" fill="#782379"/>
<path fill-rule="evenodd" clip-rule="evenodd" d="M14.7266 30.8984C16.4762 33.7531 18.9762 35.6151 22.2266 36.4844C27.7943 37.4472 32.1173 35.5852 35.1953 30.8984C37.6262 32.1857 39.996 33.5659 42.3047 35.0391C42.0366 35.5546 41.646 35.9582 41.1328 36.25C36.5107 38.8865 31.9013 41.5427 27.3047 44.2188C26.7812 44.5357 26.2343 44.7831 25.6641 44.9609C25.1953 44.9609 24.7266 44.9609 24.2578 44.9609C23.8926 44.843 23.528 44.6998 23.1641 44.5312C18.3724 41.7709 13.5807 39.0104 8.78906 36.25C8.25155 35.9339 7.83488 35.5042 7.53906 34.9609C9.9162 33.5733 12.312 32.2191 14.7266 30.8984Z" fill="#782379"/>
</svg>
