<svg width="50" height="50" viewBox="0 0 50 50" fill="none" xmlns="http://www.w3.org/2000/svg">
<rect width="50" height="50" fill="white"/>
<path opacity="0.995" fill-rule="evenodd" clip-rule="evenodd" d="M7.46094 4.96094C19.1276 4.96094 30.7943 4.96094 42.4609 4.96094C41.4416 16.9687 40.3869 28.9739 39.2969 40.9766C34.6102 42.288 29.9357 43.6161 25.2734 44.9609C25.0651 44.9609 24.8568 44.9609 24.6484 44.9609C19.9862 43.6161 15.3117 42.288 10.625 40.9766C9.53504 28.974 8.48035 16.9687 7.46094 4.96094Z" fill="#2196F3"/>
<path fill-rule="evenodd" clip-rule="evenodd" d="M35.9766 12.5391C35.9766 12.5391 34.6983 27.3901 33.9453 34.8047C30.9557 35.6498 27.9609 36.4831 24.9609 37.3047C21.9479 36.532 18.9531 35.6986 15.9766 34.8047C15.6966 32.4673 15.2734 27.7734 15.2734 27.7734H19.6866C19.6866 27.7734 19.9255 30.2745 20.0391 31.4453C21.6757 31.874 23.3163 32.2907 24.9609 32.6953C26.6047 32.2782 28.2453 31.8615 29.8828 31.4453C30.137 29.3926 30.3452 27.3352 30.5078 25.2734C25.3516 25.2734 20.1953 25.2734 15.0391 25.2734C14.883 23.8698 14.7528 22.4636 14.6484 21.0547C18.9975 21.0431 23.3465 21.0171 27.6953 20.9766C28.7891 20.9766 29.8828 20.9766 30.9766 20.9766C30.9766 20.8203 31 21.1562 31 21C31.1003 19.6472 31.155 17.8008 31.2109 16.4453C25.5338 16.4453 19.8568 16.4453 14.1797 16.4453C14.0739 15.145 13.9453 12.5391 13.9453 12.5391H25H35.9766Z" fill="#F9F9F9"/>
</svg>
