<svg width="50" height="50" viewBox="0 0 50 50" fill="none" xmlns="http://www.w3.org/2000/svg">
<rect width="50" height="50" fill="white"/>
<g opacity="0.988">
<path fill-rule="evenodd" clip-rule="evenodd" d="M8.24219 4.96094C19.3881 4.96094 30.5338 4.96094 41.6797 4.96094C42.2859 5.26148 42.5463 5.75627 42.4609 6.44531C41.6201 17.6243 40.7216 28.7962 39.7656 39.9609C39.6224 40.2084 39.4271 40.4037 39.1797 40.5469C34.5802 41.9977 29.997 43.469 25.4297 44.9609C25.1172 44.9609 24.8047 44.9609 24.4922 44.9609C19.9249 43.469 15.3416 41.9977 10.7422 40.5469C10.1828 40.1995 9.9354 39.6916 10 39.0234C9.14933 28.1644 8.30298 17.305 7.46094 6.44531C7.37555 5.75627 7.63597 5.26148 8.24219 4.96094ZM13.8672 12.3047C21.2631 12.3047 28.6588 12.3047 36.0547 12.3047C35.9704 13.7127 35.8663 15.119 35.7422 16.5234C30.1172 16.5234 24.4922 16.5234 18.8672 16.5234C18.9948 18.1407 19.151 19.7552 19.3359 21.3672C24.6745 21.3672 30.0131 21.3672 35.3516 21.3672C35.0173 25.8206 34.6788 30.2738 34.3359 34.7266C31.2119 35.6898 28.0869 36.6533 24.9609 37.6172C21.835 36.6533 18.71 35.6898 15.5859 34.7266C15.4166 32.4073 15.2342 30.0897 15.0391 27.7734C16.6537 27.7734 18.2682 27.7734 19.8828 27.7734C19.8828 28.9193 19.8828 30.0651 19.8828 31.2109C21.6123 31.6596 23.3441 32.1023 25.0781 32.5391C26.8122 32.1023 28.544 31.6596 30.2734 31.2109C30.3778 29.3596 30.508 27.5106 30.6641 25.6641C25.4037 25.6641 20.1432 25.6641 14.8828 25.6641C14.5323 21.2119 14.1938 16.7587 13.8672 12.3047Z" fill="#FB490A"/>
<path d="M13.8672 12.3047H36.0547C35.9704 13.7127 35.8663 15.119 35.7422 16.5234H18.8672C18.9948 18.1407 19.151 19.7552 19.3359 21.3672H35.3516C35.0173 25.8206 34.6788 30.2738 34.3359 34.7266L24.9609 37.6172L15.5859 34.7266C15.4166 32.4073 15.2342 30.0897 15.0391 27.7734H19.8828V31.2109C21.6123 31.6596 23.3441 32.1023 25.0781 32.5391C26.8122 32.1023 28.544 31.6596 30.2734 31.2109C30.3778 29.3596 30.508 27.5106 30.6641 25.6641H14.8828C14.5323 21.2119 14.1938 16.7587 13.8672 12.3047Z" fill="white"/>
</g>
</svg>
