<svg width="50" height="50" viewBox="0 0 50 50" fill="none" xmlns="http://www.w3.org/2000/svg">
<rect width="50" height="50" fill="white"/>
<path opacity="0.966" fill-rule="evenodd" clip-rule="evenodd" d="M28.6328 4.96094C28.7109 4.96094 28.7891 4.96094 28.8672 4.96094C29.8804 6.71587 29.9976 8.5388 29.2187 10.4297C28.6961 11.5278 28.019 12.5173 27.1875 13.3984C25.6274 14.8282 24.0909 16.2866 22.5781 17.7734C21.1319 19.4856 20.8975 21.3606 21.875 23.3984C22.524 24.699 23.3834 25.8448 24.4531 26.8359C24.4869 26.9219 24.4478 26.974 24.3359 26.9922C22.7494 26.1745 21.4082 25.0547 20.3125 23.6328C18.5628 21.016 18.7712 18.568 20.9375 16.2891C22.4669 14.8635 24.0423 13.4963 25.6641 12.1875C26.8604 11.1748 27.7849 9.96387 28.4375 8.55469C28.8273 7.37605 28.8924 6.17813 28.6328 4.96094Z" fill="#DE8E2F"/>
<path opacity="0.963" fill-rule="evenodd" clip-rule="evenodd" d="M32.2266 13.164C32.3518 13.1493 32.456 13.1884 32.5391 13.2812C30.6896 14.2121 29.1402 15.5011 27.8906 17.1484C27.1105 18.3839 27.0324 19.66 27.6563 20.9765C28.1449 21.8234 28.6136 22.6828 29.0625 23.5546C29.3953 24.7189 29.161 25.7606 28.3594 26.6796C27.8981 27.1932 27.3903 27.649 26.836 28.0468C26.6544 28.21 26.4981 28.1969 26.3672 28.0078C27.1756 27.0404 27.3448 25.9727 26.875 24.8046C26.4914 24.0109 26.0487 23.2557 25.5469 22.539C24.5588 20.6597 24.689 18.8628 25.9375 17.1484C26.9396 15.99 28.1245 15.0656 29.4922 14.375C30.3953 13.9315 31.3068 13.5279 32.2266 13.164Z" fill="#DE8E2E"/>
<path opacity="0.961" fill-rule="evenodd" clip-rule="evenodd" d="M35.3516 26.5235C36.7337 26.2858 37.9187 26.6504 38.9062 27.6172C39.6949 28.8289 39.6689 30.0267 38.8281 31.211C37.8098 32.3843 36.5728 33.2567 35.1172 33.8281C34.5632 34.0389 34.0033 34.2342 33.4375 34.4141C33.3285 34.3922 33.2373 34.3401 33.1641 34.2578C34.4674 33.5671 35.6262 32.6817 36.6406 31.6016C37.3545 30.7359 37.641 29.7463 37.5 28.6328C37.0099 27.3526 36.0854 26.8057 34.7266 26.9922C34.7133 26.8889 34.7393 26.7978 34.8047 26.7188C35.0003 26.6642 35.1826 26.5992 35.3516 26.5235Z" fill="#427495"/>
<path opacity="0.967" fill-rule="evenodd" clip-rule="evenodd" d="M19.9609 26.8359C20.1451 26.8232 20.3274 26.8361 20.5078 26.875C20.5435 26.9073 20.5696 26.9464 20.5859 26.9922C19.6086 27.185 18.645 27.4325 17.6953 27.7343C17.3544 27.8525 17.068 28.0478 16.8359 28.3203C16.9602 28.5356 17.1425 28.6788 17.3828 28.75C18.7883 29.1438 20.2206 29.3782 21.6797 29.4531C25.3543 29.7252 28.9871 29.4518 32.5781 28.6328C32.9997 28.837 33.4034 29.0714 33.7891 29.3359C33.4812 29.5304 33.1426 29.6736 32.7734 29.7656C29.4398 30.6033 26.0543 30.9418 22.6172 30.7812C20.4222 30.7429 18.2608 30.4565 16.1328 29.9218C13.5338 29.0674 13.5599 28.2601 16.2109 27.5C17.4613 27.2179 18.7113 26.9965 19.9609 26.8359Z" fill="#427495"/>
<path opacity="0.971" fill-rule="evenodd" clip-rule="evenodd" d="M18.5547 31.6016C18.6944 31.5793 18.8246 31.6053 18.9453 31.6797C18.3226 32.0434 18.3226 32.3949 18.9453 32.7344C20.0356 33.0948 21.1555 33.3031 22.3047 33.3594C25.0734 33.5475 27.8078 33.3261 30.5078 32.6953C31.0508 32.9408 31.5716 33.2273 32.0703 33.5547C31.9704 33.6833 31.8402 33.7745 31.6797 33.8281C29.2276 34.6025 26.7146 34.9541 24.1406 34.8828C21.7005 34.9619 19.3177 34.6363 16.9922 33.9063C16.5594 33.7625 16.2078 33.5152 15.9375 33.1641C15.8854 33.0078 15.8854 32.8516 15.9375 32.6953C16.2892 32.3174 16.7189 32.0701 17.2266 31.9531C17.6822 31.8459 18.1248 31.7287 18.5547 31.6016Z" fill="#427495"/>
<path opacity="0.976" fill-rule="evenodd" clip-rule="evenodd" d="M19.7266 36.1329C20.0873 36.1217 20.1394 36.2519 19.8828 36.5235C19.9463 36.6261 20.0245 36.7173 20.1172 36.7969C20.6091 37.0476 21.1298 37.2039 21.6797 37.2657C23.933 37.537 26.1726 37.4459 28.3984 36.9922C29.0927 37.2613 29.7438 37.6129 30.3516 38.0469C29.0743 38.6788 27.7202 39.0434 26.2891 39.1407C24.4857 39.3187 22.6888 39.2666 20.8984 38.9844C19.9009 38.8395 18.9634 38.527 18.0859 38.0469C17.6034 37.6539 17.5774 37.2372 18.0078 36.7969C18.5627 36.5039 19.1355 36.2826 19.7266 36.1329Z" fill="#427495"/>
<path opacity="0.971" fill-rule="evenodd" clip-rule="evenodd" d="M15.6641 37.3828C15.9101 37.3602 16.1445 37.3993 16.3672 37.5C15.5813 37.736 14.8261 38.0485 14.1016 38.4375C13.0756 39.2827 13.2058 39.9077 14.4922 40.3125C16.3718 40.9332 18.2988 41.3238 20.2735 41.4844C24.3238 41.8385 28.3472 41.6432 32.3438 40.8984C33.502 40.6947 34.5828 40.2911 35.5859 39.6875C35.8622 39.4374 36.1096 39.164 36.3281 38.8672C36.8508 39.2408 36.955 39.7096 36.6406 40.2734C36.2189 40.7469 35.7111 41.0984 35.1172 41.3281C32.4793 42.1932 29.771 42.6879 26.9922 42.8125C22.2752 43.1367 17.6138 42.7722 13.0078 41.7187C12.1156 41.4919 11.3214 41.0883 10.625 40.5078C10.4041 40.2108 10.378 39.8983 10.5469 39.5703C11.0256 38.959 11.6376 38.5294 12.3828 38.2812C13.4665 37.9064 14.5602 37.6069 15.6641 37.3828Z" fill="#427495"/>
<path opacity="0.939" fill-rule="evenodd" clip-rule="evenodd" d="M27.2266 44.9609C25.5078 44.9609 23.7891 44.9609 22.0703 44.9609C19.8615 44.8108 17.674 44.4592 15.5078 43.9062C15.4037 43.8541 15.4037 43.8021 15.5078 43.75C16.9117 43.8741 18.318 44.0043 19.7266 44.1406C24.0587 44.4436 28.3556 44.1831 32.6172 43.3594C34.7738 42.9414 36.727 42.0951 38.4766 40.8203C38.4191 41.3649 38.1847 41.8206 37.7734 42.1875C36.7055 42.9434 35.5336 43.4903 34.2578 43.8281C31.9386 44.429 29.5949 44.8066 27.2266 44.9609Z" fill="#427495"/>
</svg>
