<svg width="50" height="50" viewBox="0 0 50 50" fill="none" xmlns="http://www.w3.org/2000/svg">
<rect width="50" height="50" fill="white"/>
<path fill-rule="evenodd" clip-rule="evenodd" d="M4.96094 4.96094C18.2943 4.96094 31.6276 4.96094 44.9609 4.96094C44.9609 18.2943 44.9609 31.6276 44.9609 44.9609C31.6276 44.9609 18.2943 44.9609 4.96094 44.9609C4.96094 31.6276 4.96094 18.2943 4.96094 4.96094Z" fill="#FEDE00"/>
<path fill-rule="evenodd" clip-rule="evenodd" d="M34.6484 23.086C36.2891 22.9753 37.7995 23.3529 39.1797 24.2188C39.8183 24.7525 40.3391 25.3775 40.7422 26.0938C39.8103 26.7355 38.8598 27.3474 37.8906 27.9297C37.6396 27.6652 37.4052 27.3788 37.1875 27.0703C36.3938 26.361 35.4954 26.1917 34.4922 26.5625C33.6032 27.1571 33.3819 27.9514 33.8281 28.9453C34.0234 29.1406 34.2188 29.336 34.4141 29.5313C35.7195 30.201 37.0476 30.826 38.3984 31.4063C41.5231 32.9925 42.5258 35.4535 41.4062 38.7891C40.6274 40.27 39.4165 41.1946 37.7734 41.5625C35.1641 42.2124 32.7683 41.7696 30.5859 40.2344C29.824 39.6165 29.225 38.8743 28.7891 38.0078C29.7852 37.399 30.7878 36.8001 31.7969 36.211C32.9548 38.1634 34.6345 38.8535 36.8359 38.2813C37.9791 37.7691 38.3307 36.9228 37.8906 35.7422C37.7566 35.5657 37.6134 35.3964 37.4609 35.2344C36.1497 34.5007 34.7955 33.8496 33.3984 33.2813C30.4215 31.793 29.3668 29.4362 30.2344 26.211C31.1368 24.3724 32.6081 23.3308 34.6484 23.086Z" fill="#020100"/>
<path fill-rule="evenodd" clip-rule="evenodd" d="M23.0078 23.3203C24.2578 23.3203 25.5078 23.3203 26.7578 23.3203C26.7709 27.7475 26.7578 32.1745 26.7188 36.6016C26.4606 40.0666 24.5856 41.8113 21.0938 41.8359C18.5161 41.8306 16.6541 40.6848 15.5078 38.3984C16.501 37.7827 17.5036 37.1838 18.5156 36.6016C18.8317 37.1266 19.2093 37.6084 19.6484 38.0469C20.4088 38.5302 21.2162 38.6083 22.0703 38.2812C22.5988 37.9151 22.8984 37.4073 22.9688 36.7578C23.0078 32.2787 23.0209 27.7995 23.0078 23.3203Z" fill="#010100"/>
</svg>
