<svg width="50" height="50" viewBox="0 0 50 50" fill="none" xmlns="http://www.w3.org/2000/svg">
<rect width="50" height="50" fill="white"/>
<path opacity="0.978" fill-rule="evenodd" clip-rule="evenodd" d="M17.8516 18.6328C19.7267 18.6198 21.6017 18.6328 23.4766 18.6719C23.6198 18.7109 23.7109 18.8021 23.75 18.9453C23.8021 19.5963 23.8021 20.2474 23.75 20.8984C23.7137 21.0102 23.6485 21.1013 23.5547 21.1719C22.1224 21.1979 20.6901 21.224 19.2578 21.25C18.9844 21.3151 18.8151 21.4844 18.75 21.7578C18.6837 22.3359 18.7098 22.9088 18.8281 23.4766C18.8932 23.5417 18.9584 23.6068 19.0234 23.6719C19.8568 23.6979 20.6901 23.724 21.5234 23.75C22.5147 23.9335 23.2048 24.4934 23.5938 25.4297C23.7209 26.8829 23.747 28.3413 23.6719 29.8047C23.4894 30.4439 23.0857 30.8736 22.4609 31.0938C20.4606 31.2218 18.4554 31.2478 16.4453 31.1719C16.3802 31.1068 16.3151 31.0417 16.25 30.9766C16.1979 30.2734 16.1979 29.5703 16.25 28.8672C16.2891 28.8281 16.3281 28.7891 16.3672 28.75C17.8445 28.6477 19.3289 28.5957 20.8203 28.5938C20.9598 28.5324 21.077 28.4413 21.1719 28.3203C21.224 27.6953 21.224 27.0703 21.1719 26.4453C21.1427 26.3738 21.1036 26.3086 21.0547 26.25C20.1508 26.1491 19.2393 26.097 18.3203 26.0938C17.4431 25.9088 16.7791 25.427 16.3281 24.6484C16.202 23.1681 16.1759 21.6838 16.25 20.1953C16.5198 19.3916 17.0536 18.8707 17.8516 18.6328Z" fill="black"/>
<path opacity="0.982" fill-rule="evenodd" clip-rule="evenodd" d="M27.8516 18.6328C29.2841 18.6198 30.7164 18.6328 32.1484 18.6719C32.9969 18.8953 33.5307 19.4292 33.75 20.2734C33.8021 23.3724 33.8021 26.4713 33.75 29.5703C33.5747 30.2926 33.145 30.8004 32.4609 31.0938C30.9035 31.2211 29.341 31.2472 27.7734 31.1719C27.0955 30.9627 26.6137 30.533 26.3281 29.8828C26.1992 26.6583 26.1732 23.4292 26.25 20.1953C26.5198 19.3916 27.0536 18.8707 27.8516 18.6328ZM29.2578 21.2109C29.8364 21.1838 30.4093 21.2228 30.9766 21.3281C31.0416 21.3932 31.1068 21.4584 31.1719 21.5234C31.224 23.8151 31.224 26.1068 31.1719 28.3984C31.0501 28.5756 30.8809 28.6667 30.6641 28.6719C30.1108 28.7409 29.5639 28.7149 29.0234 28.5938C28.8682 28.4907 28.777 28.3475 28.75 28.1641C28.6979 26.0287 28.6979 23.8932 28.75 21.7578C28.8295 21.4832 28.9988 21.3009 29.2578 21.2109Z" fill="black"/>
<path opacity="0.976" fill-rule="evenodd" clip-rule="evenodd" d="M11.3672 18.7109C12.0448 18.6979 12.7218 18.7109 13.3984 18.75C13.4923 18.8205 13.5574 18.9116 13.5937 19.0234C13.6703 22.5947 13.6442 26.1624 13.5156 29.7265C13.3064 30.4045 12.8767 30.8863 12.2266 31.1719C10.7161 31.224 9.20572 31.224 7.6953 31.1719C7.01729 30.9626 6.53553 30.5329 6.24999 29.8828C6.12524 28.7673 6.0992 27.6476 6.17186 26.5234C6.23697 26.4062 6.32811 26.3151 6.4453 26.25C7.12239 26.1979 7.79947 26.1979 8.47655 26.25C8.54165 26.3151 8.60676 26.3802 8.67186 26.4453C8.6979 27.0182 8.72395 27.5911 8.74999 28.164C8.77701 28.3475 8.86815 28.4907 9.02343 28.5937C9.56392 28.7149 10.1108 28.7409 10.6641 28.6719C10.8069 28.6505 10.9241 28.5854 11.0156 28.4765C11.1189 25.306 11.171 22.129 11.1719 18.9453C11.2264 18.8522 11.2915 18.7741 11.3672 18.7109Z" fill="black"/>
<path opacity="0.985" fill-rule="evenodd" clip-rule="evenodd" d="M36.3672 18.7109C37.1228 18.6979 37.8781 18.7109 38.6328 18.75C39.5242 21.1372 40.3706 23.5461 41.1719 25.9765C41.1979 23.6328 41.224 21.289 41.25 18.9453C41.3151 18.8802 41.3802 18.8151 41.4453 18.75C42.1224 18.6979 42.7995 18.6979 43.4766 18.75C43.5417 18.8151 43.6068 18.8802 43.6719 18.9453C43.724 22.9818 43.724 27.0182 43.6719 31.0547C43.6328 31.0937 43.5938 31.1328 43.5547 31.1719C42.8074 31.2979 42.0521 31.324 41.2891 31.25C41.224 31.1849 41.1588 31.1197 41.0938 31.0547C40.2968 28.6897 39.5156 26.32 38.75 23.9453C38.724 26.289 38.6979 28.6328 38.6719 30.9765C38.6068 31.0416 38.5417 31.1068 38.4766 31.1719C37.7734 31.224 37.0703 31.224 36.3672 31.1719C36.3281 31.1328 36.2891 31.0937 36.25 31.0547C36.1206 27.0508 36.0945 23.0403 36.1719 19.0234C36.2236 18.9075 36.2888 18.8033 36.3672 18.7109Z" fill="black"/>
</svg>
