<svg width="50" height="50" viewBox="0 0 50 50" fill="none" xmlns="http://www.w3.org/2000/svg">
<rect width="50" height="50" fill="white"/>
<path opacity="0.983" fill-rule="evenodd" clip-rule="evenodd" d="M22.6953 4.96094C23.2943 4.96094 23.8932 4.96094 24.4922 4.96094C23.5842 6.06463 22.6597 7.15838 21.7188 8.24219C21.6502 8.58405 21.4549 8.81842 21.1328 8.94531C20.5295 7.93266 19.6963 7.68527 18.6328 8.20312C17.8627 8.77641 17.6413 9.5186 17.9688 10.4297C18.2158 10.9247 18.5934 11.2632 19.1016 11.4453C18.347 12.2347 17.6178 13.055 16.9141 13.9062C17.8512 13.9453 18.7887 13.9584 19.7266 13.9453C19.7266 13.9713 19.7266 13.9974 19.7266 14.0234C18.2682 14.0234 16.8099 14.0234 15.3516 14.0234C15.3385 12.4607 15.3516 10.8982 15.3906 9.33594C15.5839 7.29317 16.6906 6.0562 18.7109 5.625C20.0339 5.3042 21.362 5.08285 22.6953 4.96094Z" fill="#4787B9"/>
<path opacity="0.995" fill-rule="evenodd" clip-rule="evenodd" d="M24.4922 4.96094C25.3516 4.96094 26.2109 4.96094 27.0703 4.96094C27.6102 5.03409 28.1571 5.11221 28.7109 5.19531C26.2735 8.10135 23.8256 11.005 21.3672 13.9062C20.8209 13.9453 20.2741 13.9583 19.7266 13.9453C18.7887 13.9584 17.8512 13.9453 16.9141 13.9062C17.6178 13.055 18.347 12.2347 19.1016 11.4453C20.8487 11.4698 21.5258 10.6364 21.1328 8.94531C21.4548 8.81842 21.6502 8.58405 21.7188 8.24219C22.6597 7.15838 23.5841 6.06463 24.4922 4.96094Z" fill="#4280B1"/>
<path opacity="0.995" fill-rule="evenodd" clip-rule="evenodd" d="M32.4609 6.44531C33.0372 6.86805 33.5059 7.38888 33.8672 8.00781C33.8225 8.14495 33.7573 8.27516 33.6719 8.39844C29.153 13.6873 24.6348 18.9738 20.1172 24.2578C16.9402 24.5834 15.0001 26.3022 14.2969 29.4141C14.2578 31.1326 14.2448 32.8513 14.2578 34.5703C12.9295 34.5834 11.6013 34.5703 10.2734 34.5312C9.76653 34.4831 9.29778 34.3398 8.86719 34.1016C16.731 24.8859 24.5955 15.6672 32.4609 6.44531Z" fill="#3874A4"/>
<path opacity="0.997" fill-rule="evenodd" clip-rule="evenodd" d="M33.8672 8.00781C34.1606 8.4836 34.3559 9.00444 34.4531 9.57031C34.4922 10.3511 34.5052 11.1324 34.4922 11.9141C30.9773 16.0255 27.4617 20.1401 23.9453 24.2578C22.6693 24.2578 21.3932 24.2578 20.1172 24.2578C24.6348 18.9738 29.153 13.6873 33.6719 8.39844C33.7573 8.27516 33.8225 8.14495 33.8672 8.00781Z" fill="#356F9F"/>
<path opacity="0.991" fill-rule="evenodd" clip-rule="evenodd" d="M34.4922 11.9141C34.5052 14.6486 34.4922 17.383 34.4531 20.1172C34.0391 22.3541 32.724 23.7212 30.5078 24.2188C28.3205 24.2578 26.133 24.2709 23.9453 24.2578C27.4617 20.1401 30.9773 16.0255 34.4922 11.9141Z" fill="#306998"/>
<path opacity="0.993" fill-rule="evenodd" clip-rule="evenodd" d="M12.0703 15.1172C9.8024 17.7754 7.53677 20.4317 5.27344 23.086C5.40433 21.3764 5.80798 19.7358 6.48438 18.1641C7.74889 16.0796 9.61087 15.0639 12.0703 15.1172Z" fill="#4A8ABD"/>
<path opacity="0.994" fill-rule="evenodd" clip-rule="evenodd" d="M12.0703 15.1172C13.3203 15.1172 14.5703 15.1172 15.8203 15.1172C15.7697 15.2411 15.7306 15.3713 15.7031 15.5078C12.3958 19.388 9.08854 23.2682 5.78125 27.1484C5.66789 27.3019 5.52466 27.406 5.35156 27.4609C5.0989 25.9943 5.07286 24.5359 5.27344 23.0859C7.53677 20.4316 9.8024 17.7754 12.0703 15.1172Z" fill="#4685B8"/>
<path opacity="0.996" fill-rule="evenodd" clip-rule="evenodd" d="M15.8203 15.1172C17.2526 15.1172 18.6849 15.1172 20.1172 15.1172C20.1954 15.2179 20.1823 15.322 20.0781 15.4297C15.5174 20.7583 10.9732 26.0968 6.44531 31.4453C6.22465 31.0584 6.05538 30.6417 5.9375 30.1953C5.70479 29.2907 5.50948 28.3792 5.35156 27.4609C5.52467 27.406 5.66789 27.3019 5.78125 27.1484C9.08854 23.2682 12.3958 19.388 15.7031 15.5078C15.7306 15.3713 15.7697 15.2411 15.8203 15.1172Z" fill="#4280B1"/>
<path opacity="0.996" fill-rule="evenodd" clip-rule="evenodd" d="M28.7109 5.19531C30.0856 5.25423 31.3356 5.6709 32.4609 6.44531C24.5955 15.6672 16.731 24.8859 8.86719 34.1016C7.70245 33.5436 6.89516 32.6581 6.44531 31.4453C10.9732 26.0968 15.5174 20.7583 20.0781 15.4297C20.1823 15.322 20.1954 15.2179 20.1172 15.1172C21.7057 15.1172 23.2943 15.1172 24.8828 15.1172C24.8828 14.7526 24.8828 14.388 24.8828 14.0234C23.1641 14.0234 21.4453 14.0234 19.7266 14.0234C19.7266 13.9974 19.7266 13.9713 19.7266 13.9453C20.2741 13.9583 20.8209 13.9453 21.3672 13.9062C23.8256 11.005 26.2735 8.10135 28.7109 5.19531Z" fill="#3D79AA"/>
<path opacity="0.992" fill-rule="evenodd" clip-rule="evenodd" d="M42.539 16.6797C40.0872 18.4334 37.6263 20.1782 35.1562 21.9141C35.1251 21.8963 35.1121 21.8702 35.1172 21.836C35.2997 21.3274 35.4429 20.8065 35.5468 20.2735C35.5859 18.555 35.599 16.8362 35.5859 15.1172C37.1776 15.0839 38.7661 15.1229 40.3515 15.2344C41.2629 15.4583 41.9921 15.9401 42.539 16.6797Z" fill="#FFE66F"/>
<path opacity="0.995" fill-rule="evenodd" clip-rule="evenodd" d="M42.5391 16.6797C42.8828 17.0796 43.1693 17.5223 43.3984 18.0078C43.3132 18.1832 43.183 18.3264 43.0078 18.4375C33.7971 25.0061 24.5784 31.5555 15.3516 38.0859C15.3516 37.487 15.3516 36.888 15.3516 36.2891C15.4009 36.1369 15.479 35.9937 15.5859 35.8594C20.513 32.3551 25.4349 28.8524 30.3516 25.3516C32.5403 24.9848 34.1289 23.8129 35.1172 21.8359C35.1121 21.8702 35.1251 21.8962 35.1562 21.9141C37.6263 20.1781 40.0873 18.4334 42.5391 16.6797Z" fill="#FFE366"/>
<path opacity="0.998" fill-rule="evenodd" clip-rule="evenodd" d="M43.3984 18.0078C43.6433 18.56 43.8255 19.1329 43.9453 19.7266C43.8732 19.6638 43.7951 19.6508 43.7109 19.6875C34.2659 26.4384 24.8127 33.1701 15.3516 39.8828C15.3516 39.2838 15.3516 38.6849 15.3516 38.0859C24.5784 31.5555 33.7971 25.0061 43.0078 18.4375C43.183 18.3264 43.3132 18.1832 43.3984 18.0078Z" fill="#FFE160"/>
<path opacity="0.998" fill-rule="evenodd" clip-rule="evenodd" d="M43.9453 19.7266C44.242 20.6884 44.4502 21.678 44.5703 22.6954C39.0067 26.6354 33.4598 30.5938 27.9297 34.5704C26.9401 34.5704 25.9505 34.5704 24.9609 34.5704C24.9609 34.961 24.9609 35.3516 24.9609 35.7422C25.3776 35.7422 25.7943 35.7422 26.2109 35.7422C23.0766 38.0001 19.9255 40.2397 16.7578 42.461C15.9846 41.7744 15.5159 40.915 15.3516 39.8829C24.8127 33.1701 34.2659 26.4384 43.7109 19.6876C43.7951 19.6508 43.8732 19.6639 43.9453 19.7266Z" fill="#FFDE58"/>
<path opacity="0.995" fill-rule="evenodd" clip-rule="evenodd" d="M44.5703 22.6953C44.6859 23.2871 44.738 23.886 44.7266 24.4922C44.6323 24.7108 44.4761 24.8801 44.2578 25C39.772 28.1534 35.3188 31.3436 30.8984 34.5703C29.9088 34.5703 28.9193 34.5703 27.9297 34.5703C33.4598 30.5937 39.0067 26.6354 44.5703 22.6953Z" fill="#FFDA4E"/>
<path opacity="0.994" fill-rule="evenodd" clip-rule="evenodd" d="M44.7266 24.4922C44.8032 25.2086 44.8032 25.9377 44.7266 26.6797C44.6702 26.647 44.6311 26.595 44.6094 26.5234C40.8465 29.1787 37.1095 31.861 33.3984 34.5703C32.5651 34.5703 31.7318 34.5703 30.8984 34.5703C35.3188 31.3436 39.772 28.1534 44.2578 25C44.4761 24.8801 44.6323 24.7108 44.7266 24.4922Z" fill="#FFD847"/>
<path opacity="0.992" fill-rule="evenodd" clip-rule="evenodd" d="M27.6953 25.4297C23.5837 28.3714 19.4691 31.3142 15.3516 34.2578C15.3385 32.7472 15.3516 31.2367 15.3906 29.7266C15.7964 27.4199 17.1375 26.0006 19.4141 25.4688C22.1744 25.4297 24.9348 25.4167 27.6953 25.4297Z" fill="#FFE772"/>
<path opacity="0.995" fill-rule="evenodd" clip-rule="evenodd" d="M30.3516 25.3516C25.4349 28.8524 20.513 32.3551 15.5859 35.8594C15.479 35.9937 15.4009 36.1369 15.3516 36.2891C15.3516 35.612 15.3516 34.9349 15.3516 34.2578C19.4691 31.3141 23.5837 28.3714 27.6953 25.4297C28.5837 25.4506 29.4691 25.4245 30.3516 25.3516Z" fill="#FFE56D"/>
<path opacity="0.992" fill-rule="evenodd" clip-rule="evenodd" d="M44.7266 26.6797C44.6448 27.349 44.5146 28 44.3359 28.6328C44.3049 28.5527 44.2529 28.5397 44.1797 28.5938C41.4051 30.5752 38.6447 32.5674 35.8984 34.5703C35.0651 34.5703 34.2318 34.5703 33.3984 34.5703C37.1095 31.861 40.8465 29.1787 44.6094 26.5234C44.6311 26.595 44.6702 26.647 44.7266 26.6797Z" fill="#FFD641"/>
<path opacity="0.981" fill-rule="evenodd" clip-rule="evenodd" d="M44.3359 28.6328C44.013 30.136 43.453 31.5423 42.6562 32.8515C42.0143 33.8173 41.1159 34.3772 39.9609 34.5312C38.607 34.5703 37.2529 34.5833 35.8984 34.5703C38.6447 32.5674 41.4051 30.5752 44.1797 28.5937C44.2529 28.5396 44.3049 28.5527 44.3359 28.6328Z" fill="#FFD43B"/>
<path opacity="0.997" fill-rule="evenodd" clip-rule="evenodd" d="M26.2109 35.7422C27.1745 35.7422 28.138 35.7422 29.1016 35.7422C25.5039 38.3501 21.8841 40.9282 18.2422 43.4766C17.6789 43.2343 17.1841 42.8958 16.7578 42.4609C19.9255 40.2396 23.0766 38 26.2109 35.7422Z" fill="#FFDA4E"/>
<path opacity="0.997" fill-rule="evenodd" clip-rule="evenodd" d="M29.1016 35.7422C29.9349 35.7422 30.7682 35.7422 31.6016 35.7422C27.7079 38.613 23.7756 41.4255 19.8047 44.1797C19.252 44.0046 18.7312 43.7702 18.2422 43.4766C21.8841 40.9282 25.5039 38.3501 29.1016 35.7422Z" fill="#FFD847"/>
<path opacity="0.991" fill-rule="evenodd" clip-rule="evenodd" d="M31.6016 35.7422C32.4349 35.7422 33.2682 35.7422 34.1016 35.7422C32.9818 36.5755 31.862 37.4088 30.7422 38.2422C29.4806 38.1505 28.7515 38.7234 28.5547 39.9609C28.4983 39.9283 28.4592 39.8763 28.4375 39.8047C26.1967 41.4086 23.9702 43.0232 21.7578 44.6484C21.0976 44.529 20.4466 44.3727 19.8047 44.1797C23.7756 41.4255 27.7079 38.613 31.6016 35.7422Z" fill="#FFD641"/>
<path opacity="0.986" fill-rule="evenodd" clip-rule="evenodd" d="M34.1016 35.7422C34.2318 35.7422 34.362 35.7422 34.4922 35.7422C34.5052 37.2008 34.4922 38.6591 34.4531 40.1172C34.114 41.5639 33.2937 42.6446 31.9922 43.3594C30.2248 44.2049 28.3758 44.7388 26.4453 44.9609C25.4297 44.9609 24.4141 44.9609 23.3984 44.9609C22.8563 44.872 22.3095 44.7678 21.7578 44.6484C23.9702 43.0232 26.1967 41.4086 28.4375 39.8047C28.4592 39.8763 28.4983 39.9283 28.5547 39.9609C28.7033 41.2166 29.4064 41.8025 30.6641 41.7188C31.5199 41.4666 31.9887 40.8936 32.0703 40C31.9914 39.1282 31.5487 38.5423 30.7422 38.2422C31.862 37.4088 32.9818 36.5755 34.1016 35.7422Z" fill="#FFD43B"/>
</svg>
