<svg width="50" height="50" viewBox="0 0 50 50" fill="none" xmlns="http://www.w3.org/2000/svg">
<rect width="50" height="50" fill="white"/>
<g opacity="0.954">
<path fill-rule="evenodd" clip-rule="evenodd" d="M27.8516 7.61716C25.9505 7.61716 24.0495 7.61716 22.1484 7.61716C24.047 6.17075 25.948 6.17075 27.8516 7.61716Z" fill="#00EED1"/>
<path fill-rule="evenodd" clip-rule="evenodd" d="M22.1484 7.61716C24.0495 7.61716 25.9505 7.61716 27.8516 7.61716C28.9484 8.50822 29.7818 9.60197 30.3516 10.8984C29.362 10.8984 28.3724 10.8984 27.3828 10.8984C25.7682 8.50257 24.1537 8.50257 22.5391 10.8984C21.5755 10.8984 20.612 10.8984 19.6484 10.8984C20.2175 9.60059 21.0509 8.50684 22.1484 7.61716Z" fill="#00EAD2"/>
<path fill-rule="evenodd" clip-rule="evenodd" d="M19.6484 10.8984C20.612 10.8984 21.5755 10.8984 22.5391 10.8984C22.328 11.2387 22.1197 11.5772 21.9141 11.914C21.0026 11.914 20.0912 11.914 19.1797 11.914C19.2747 11.542 19.4309 11.2035 19.6484 10.8984Z" fill="#00E6D4"/>
<path fill-rule="evenodd" clip-rule="evenodd" d="M27.3828 10.8984C28.3724 10.8984 29.362 10.8984 30.3516 10.8984C30.5078 11.2369 30.6641 11.5755 30.8203 11.914C29.8828 11.914 28.9453 11.914 28.0078 11.914C27.8022 11.5772 27.5938 11.2387 27.3828 10.8984Z" fill="#00E6D4"/>
<path fill-rule="evenodd" clip-rule="evenodd" d="M19.1797 11.914C20.0912 11.914 21.0026 11.914 21.9141 11.914C21.5328 12.7288 21.1943 13.5621 20.8984 14.414C21.062 14.4936 21.2183 14.5717 21.3672 14.6484C17.513 14.6484 13.6588 14.6484 9.80469 14.6484C10.3856 14.2017 11.0366 13.8762 11.7578 13.6718C12.5337 13.5071 13.315 13.3899 14.1016 13.3203C15.5447 13.375 16.977 13.5183 18.3984 13.75C18.6224 13.1154 18.8828 12.5035 19.1797 11.914Z" fill="#00E2D5"/>
<path fill-rule="evenodd" clip-rule="evenodd" d="M28.0078 11.914C28.9453 11.914 29.8828 11.914 30.8203 11.914C31.0748 12.5337 31.3221 13.1587 31.5625 13.789C33.2177 13.3957 34.8973 13.2525 36.6016 13.3593C37.7168 13.4298 38.7584 13.7423 39.7266 14.2968C39.892 14.3788 40.0222 14.496 40.1172 14.6484C36.263 14.6484 32.4088 14.6484 28.5547 14.6484C28.6886 14.5517 28.8448 14.4996 29.0234 14.4922C28.7609 13.6001 28.4224 12.7408 28.0078 11.914Z" fill="#00E2D5"/>
<path fill-rule="evenodd" clip-rule="evenodd" d="M9.80469 14.6484C13.6588 14.6484 17.513 14.6484 21.3672 14.6484C22.6083 15.0058 23.8192 15.4484 25 15.9765C26.1605 15.4639 27.3453 15.0212 28.5547 14.6484C32.4088 14.6484 36.263 14.6484 40.1172 14.6484C40.8921 15.2048 41.3739 15.96 41.5625 16.914C41.608 17.2525 41.6471 17.591 41.6797 17.9297C40.8463 17.9297 40.013 17.9297 39.1797 17.9297C39.1543 17.3189 38.8939 16.8371 38.3984 16.4843C37.4727 15.9893 36.483 15.7679 35.4297 15.8203C34.348 15.8425 33.2802 15.9727 32.2266 16.2109C32.3047 16.7838 32.3828 17.3568 32.4609 17.9297C31.6276 17.9297 30.7943 17.9297 29.9609 17.9297C29.8677 17.5711 29.7635 17.2065 29.6484 16.8359C29.0986 17.0235 28.5517 17.2188 28.0078 17.4218C28.3377 17.5735 28.6502 17.7428 28.9453 17.9297C26.3151 17.9297 23.6849 17.9297 21.0547 17.9297C21.3104 17.7231 21.5969 17.5538 21.9141 17.4218C21.347 17.2415 20.7871 17.0462 20.2344 16.8359C20.1566 17.2141 20.0655 17.5787 19.9609 17.9297C19.1016 17.9297 18.2422 17.9297 17.3828 17.9297C17.5203 17.3653 17.6245 16.7924 17.6953 16.2109C16.0148 15.7965 14.3221 15.7314 12.6172 16.0156C11.7737 16.1575 11.1878 16.6133 10.8594 17.3828C10.8206 17.5633 10.8076 17.7455 10.8203 17.9297C9.96094 17.9297 9.10156 17.9297 8.24219 17.9297C8.26239 16.5875 8.78322 15.4938 9.80469 14.6484Z" fill="#00DDD7"/>
<path fill-rule="evenodd" clip-rule="evenodd" d="M8.24219 17.9297C9.10156 17.9297 9.96094 17.9297 10.8203 17.9297C10.8881 18.8883 11.1746 19.7736 11.6797 20.5859C10.7422 20.5859 9.80469 20.5859 8.86719 20.5859C8.48726 19.7432 8.27893 18.8577 8.24219 17.9297Z" fill="#00D8D9"/>
<path fill-rule="evenodd" clip-rule="evenodd" d="M17.3828 17.9297C18.2422 17.9297 19.1016 17.9297 19.9609 17.9297C19.9548 18.1447 19.9418 18.3529 19.9219 18.5547C20.2849 18.3147 20.6625 18.1064 21.0547 17.9297C23.6849 17.9297 26.3151 17.9297 28.9453 17.9297C29.3248 18.087 29.6763 18.2954 30 18.5547C29.9935 18.35 29.9805 18.1417 29.9609 17.9297C30.7943 17.9297 31.6276 17.9297 32.4609 17.9297C32.6382 18.8041 32.7945 19.6896 32.9297 20.5859C31.4193 20.5859 29.9088 20.5859 28.3984 20.5859C27.2765 19.9468 26.1306 19.3478 24.9609 18.789C23.7912 19.3478 22.6454 19.9468 21.5234 20.5859C19.987 20.5859 18.4505 20.5859 16.9141 20.5859C16.9362 20.5243 16.9752 20.4722 17.0312 20.4297C17.1668 19.5981 17.284 18.7648 17.3828 17.9297Z" fill="#00D8D9"/>
<path fill-rule="evenodd" clip-rule="evenodd" d="M39.1797 17.9297C40.013 17.9297 40.8463 17.9297 41.6797 17.9297C41.64 18.8575 41.4317 19.7429 41.0547 20.5859C40.1172 20.5859 39.1797 20.5859 38.2422 20.5859C38.7747 19.7806 39.0872 18.8952 39.1797 17.9297Z" fill="#00D8D9"/>
<path fill-rule="evenodd" clip-rule="evenodd" d="M8.86719 20.5859C9.80469 20.5859 10.7422 20.5859 11.6797 20.5859C11.8096 20.7936 11.9399 21.0019 12.0703 21.2109C11.1068 21.2109 10.1432 21.2109 9.17969 21.2109C9.03586 21.0274 8.9317 20.8191 8.86719 20.5859Z" fill="#00D5DB"/>
<path fill-rule="evenodd" clip-rule="evenodd" d="M16.9141 20.5859C18.4505 20.5859 19.987 20.5859 21.5234 20.5859C21.2008 20.8127 20.8623 21.0211 20.5078 21.2109C19.0234 21.2109 17.5391 21.2109 16.0547 21.2109C16.3244 20.9844 16.6108 20.7761 16.9141 20.5859Z" fill="#00D5DB"/>
<path fill-rule="evenodd" clip-rule="evenodd" d="M28.3984 20.5859C29.9088 20.5859 31.4193 20.5859 32.9297 20.5859C33.2584 20.7371 33.5448 20.9454 33.7891 21.2109C32.3307 21.2109 30.8724 21.2109 29.4141 21.2109C29.0596 21.0211 28.7211 20.8127 28.3984 20.5859Z" fill="#00D5DB"/>
<path fill-rule="evenodd" clip-rule="evenodd" d="M38.2422 20.5859C39.1797 20.5859 40.1172 20.5859 41.0547 20.5859C40.9505 20.7943 40.8463 21.0025 40.7422 21.2109C39.7787 21.2109 38.8151 21.2109 37.8516 21.2109C37.9818 21.0025 38.112 20.7943 38.2422 20.5859Z" fill="#00D5DB"/>
<path fill-rule="evenodd" clip-rule="evenodd" d="M9.17969 21.2109C10.1432 21.2109 11.1068 21.2109 12.0703 21.2109C12.5653 21.8852 13.0992 22.5362 13.6719 23.164C14.4336 22.4668 15.2278 21.8158 16.0547 21.2109C17.5391 21.2109 19.0234 21.2109 20.5078 21.2109C20.2198 21.4453 19.9073 21.6536 19.5703 21.8359C19.4309 22.6886 19.3789 23.5479 19.4141 24.414C18.5547 24.414 17.6953 24.414 16.8359 24.414C16.8488 24.2041 16.8357 23.9958 16.7969 23.789C16.5823 24.0433 16.3348 24.2515 16.0547 24.414C14.5182 24.414 12.9818 24.414 11.4453 24.414C10.5175 23.4704 9.76229 22.4027 9.17969 21.2109Z" fill="#00D1DC"/>
<path fill-rule="evenodd" clip-rule="evenodd" d="M28.6328 24.414C27.7734 24.414 26.9141 24.414 26.0547 24.414C25.5853 23.7718 24.9864 23.6286 24.2578 23.9843C24.1092 24.1195 23.979 24.2627 23.8672 24.414C23.0078 24.414 22.1484 24.414 21.2891 24.414C21.7312 22.4598 22.9552 21.3921 24.9609 21.2109C26.9667 21.3921 28.1907 22.4598 28.6328 24.414Z" fill="#00D1DC"/>
<path fill-rule="evenodd" clip-rule="evenodd" d="M29.4141 21.2109C30.8724 21.2109 32.3307 21.2109 33.7891 21.2109C34.6657 21.8004 35.4991 22.4515 36.2891 23.164C36.8687 22.5585 37.3895 21.9075 37.8516 21.2109C38.8151 21.2109 39.7787 21.2109 40.7422 21.2109C40.1363 22.3889 39.381 23.4565 38.4766 24.414C36.9141 24.414 35.3516 24.414 33.7891 24.414C33.5485 24.2604 33.3272 24.0781 33.125 23.8672C33.0862 24.0476 33.0732 24.2299 33.0859 24.414C32.2266 24.414 31.3672 24.414 30.5078 24.414C30.543 23.5479 30.4909 22.6886 30.3516 21.8359C30.034 21.6258 29.7215 21.4174 29.4141 21.2109Z" fill="#00D1DC"/>
<path fill-rule="evenodd" clip-rule="evenodd" d="M11.4453 24.414C12.9818 24.414 14.5182 24.414 16.0547 24.414C15.8502 24.5665 15.6678 24.7488 15.5078 24.9609C15.8994 25.3523 16.316 25.7169 16.7578 26.0547C16.8357 25.5103 16.8617 24.9634 16.8359 24.414C17.6953 24.414 18.5547 24.414 19.4141 24.414C19.3717 24.6054 19.3457 24.8007 19.3359 25C19.3904 25.8454 19.4295 26.6918 19.4531 27.539C19.4593 27.7993 19.5245 28.0336 19.6484 28.2422C18.2682 28.2422 16.888 28.2422 15.5078 28.2422C14.8875 27.7658 14.2755 27.2711 13.6719 26.7578C13.2302 27.2263 12.8266 27.7211 12.4609 28.2422C11.4714 28.2422 10.4818 28.2422 9.49219 28.2422C10.1209 27.1045 10.8891 26.0628 11.7969 25.1172C11.849 25.039 11.849 24.9609 11.7969 24.8828C11.6307 24.7567 11.5135 24.6004 11.4453 24.414Z" fill="#00CADE"/>
<path fill-rule="evenodd" clip-rule="evenodd" d="M21.2891 24.414C22.1484 24.414 23.0078 24.414 23.8672 24.414C23.6595 25.7299 24.2064 26.2638 25.5078 26.0156C26.0851 25.6251 26.2673 25.0912 26.0547 24.414C26.9141 24.414 27.7734 24.414 28.6328 24.414C28.7873 25.709 28.3966 26.8158 27.4609 27.7343C27.2216 27.9842 26.9352 28.1534 26.6016 28.2422C25.5078 28.2422 24.4141 28.2422 23.3203 28.2422C22.2734 27.7275 21.6094 26.8943 21.3281 25.7422C21.2416 25.2946 21.2286 24.8518 21.2891 24.414Z" fill="#00CBDE"/>
<path fill-rule="evenodd" clip-rule="evenodd" d="M30.5078 24.414C31.3672 24.414 32.2266 24.414 33.0859 24.414C33.073 24.9615 33.0859 25.5084 33.125 26.0547C33.591 25.7318 34.0207 25.3672 34.4141 24.9609C34.2022 24.7746 33.9939 24.5923 33.7891 24.414C35.3516 24.414 36.9141 24.414 38.4766 24.414C38.2946 24.5966 38.1774 24.805 38.125 25.039C38.9964 26.0531 39.7907 27.1208 40.5078 28.2422C39.4922 28.2422 38.4766 28.2422 37.4609 28.2422C37.058 27.7497 36.6543 27.255 36.25 26.7578C35.6969 27.2984 35.1109 27.7932 34.4922 28.2422C33.0859 28.2422 31.6797 28.2422 30.2734 28.2422C30.3974 28.0336 30.4626 27.7993 30.4688 27.539C30.4924 26.6918 30.5315 25.8454 30.5859 25C30.5762 24.8007 30.5502 24.6054 30.5078 24.414Z" fill="#00CADE"/>
<path fill-rule="evenodd" clip-rule="evenodd" d="M9.49219 28.2422C10.4818 28.2422 11.4714 28.2422 12.4609 28.2422C12.2266 28.6068 11.9922 28.9713 11.7578 29.3359C10.7943 29.3359 9.83073 29.3359 8.86719 29.3359C9.0372 28.9431 9.24554 28.5786 9.49219 28.2422Z" fill="#00C6E0"/>
<path fill-rule="evenodd" clip-rule="evenodd" d="M15.5078 28.2422C16.888 28.2422 18.2682 28.2422 19.6484 28.2422C20.2242 28.6078 20.7971 28.9724 21.3672 29.3359C19.8828 29.3359 18.3984 29.3359 16.9141 29.3359C16.414 29.0082 15.9452 28.6436 15.5078 28.2422Z" fill="#00C6E0"/>
<path fill-rule="evenodd" clip-rule="evenodd" d="M23.3203 28.2422C24.4141 28.2422 25.5078 28.2422 26.6016 28.2422C25.645 28.7345 24.6554 28.7997 23.6328 28.4375C23.5105 28.39 23.4062 28.3248 23.3203 28.2422Z" fill="#00C7E0"/>
<path fill-rule="evenodd" clip-rule="evenodd" d="M30.2734 28.2422C31.6797 28.2422 33.0859 28.2422 34.4922 28.2422C34.0398 28.6637 33.545 29.0283 33.0078 29.3359C31.5234 29.3359 30.0391 29.3359 28.5547 29.3359C29.1248 28.9724 29.6977 28.6078 30.2734 28.2422Z" fill="#00C6E0"/>
<path fill-rule="evenodd" clip-rule="evenodd" d="M37.4609 28.2422C38.4766 28.2422 39.4922 28.2422 40.5078 28.2422C40.6901 28.6068 40.8724 28.9713 41.0547 29.3359C40.1172 29.3359 39.1797 29.3359 38.2422 29.3359C37.954 28.9949 37.6936 28.6304 37.4609 28.2422Z" fill="#00C6E0"/>
<path fill-rule="evenodd" clip-rule="evenodd" d="M8.86719 29.3359C9.83073 29.3359 10.7943 29.3359 11.7578 29.3359C11.3355 29.9975 11.023 30.7007 10.8203 31.4453C9.98698 31.4453 9.15365 31.4453 8.32031 31.4453C8.39267 30.7131 8.57496 30.01 8.86719 29.3359Z" fill="#00C3E1"/>
<path fill-rule="evenodd" clip-rule="evenodd" d="M16.9141 29.3359C18.3984 29.3359 19.8828 29.3359 21.3672 29.3359C22.5391 30.0001 23.7371 30.6251 24.9609 31.2109C26.1827 30.6261 27.3806 30.0011 28.5547 29.3359C30.0391 29.3359 31.5234 29.3359 33.0078 29.3359C32.9062 29.4439 32.8411 29.574 32.8125 29.7265C32.7459 30.3145 32.6548 30.8874 32.5391 31.4453C31.7057 31.4453 30.8724 31.4453 30.0391 31.4453C29.9842 31.3972 29.9061 31.3972 29.8047 31.4453C26.5495 31.4453 23.2943 31.4453 20.0391 31.4453C19.9691 31.3667 19.917 31.3667 19.8828 31.4453C19.0234 31.4453 18.1641 31.4453 17.3047 31.4453C17.2201 30.7943 17.1289 30.1433 17.0312 29.4922C16.9752 29.4497 16.9362 29.3975 16.9141 29.3359Z" fill="#00C3E1"/>
<path fill-rule="evenodd" clip-rule="evenodd" d="M38.2422 29.3359C39.1797 29.3359 40.1172 29.3359 41.0547 29.3359C41.3466 30.0087 41.5289 30.7118 41.6016 31.4453C40.7682 31.4453 39.9349 31.4453 39.1016 31.4453C38.8835 30.7216 38.5971 30.0185 38.2422 29.3359Z" fill="#00C3E1"/>
<path fill-rule="evenodd" clip-rule="evenodd" d="M8.32031 31.4453C9.15365 31.4453 9.98698 31.4453 10.8203 31.4453C10.646 32.8281 11.245 33.6484 12.6172 33.9062C14.3218 34.1818 16.0145 34.1167 17.6953 33.7109C17.5551 32.9575 17.4248 32.2023 17.3047 31.4453C18.1641 31.4453 19.0234 31.4453 19.8828 31.4453C20.007 31.9878 20.1111 32.5347 20.1953 33.0859C20.7681 32.9818 21.315 32.7995 21.8359 32.539C21.219 32.1921 20.62 31.8275 20.0391 31.4453C23.2943 31.4453 26.5495 31.4453 29.8047 31.4453C29.2367 31.7818 28.6638 32.1203 28.0859 32.4609C28.6234 32.6618 29.1573 32.87 29.6875 33.0859C29.8103 32.5368 29.9275 31.99 30.0391 31.4453C30.8724 31.4453 31.7057 31.4453 32.5391 31.4453C32.4839 32.2027 32.3537 32.9449 32.1484 33.6718C33.2148 33.974 34.3086 34.1172 35.4297 34.1015C36.6645 34.2068 37.7713 33.8943 38.75 33.164C39.0692 32.6393 39.1864 32.0664 39.1016 31.4453C39.9349 31.4453 40.7682 31.4453 41.6016 31.4453C41.7313 32.3728 41.588 33.2582 41.1719 34.1015C41.0198 34.3297 40.8505 34.538 40.6641 34.7265C36.0807 34.7265 31.4974 34.7265 26.9141 34.7265C26.2687 34.5158 25.6307 34.2814 25 34.0234C24.3582 34.2504 23.7202 34.4847 23.0859 34.7265C18.4505 34.7265 13.8151 34.7265 9.17969 34.7265C8.43065 33.7619 8.14419 32.6682 8.32031 31.4453Z" fill="#00BEE3"/>
<path fill-rule="evenodd" clip-rule="evenodd" d="M9.17969 34.7265C13.8151 34.7265 18.4505 34.7265 23.0859 34.7265C22.3619 35.0116 21.6327 35.298 20.8984 35.5859C21.1735 36.4222 21.512 37.2294 21.9141 38.0078C20.9766 38.0078 20.0391 38.0078 19.1016 38.0078C18.8471 37.3881 18.5998 36.7631 18.3594 36.1328C16.2005 36.6669 14.026 36.7321 11.8359 36.3281C10.787 36.0516 9.90156 35.5178 9.17969 34.7265Z" fill="#00B9E4"/>
<path fill-rule="evenodd" clip-rule="evenodd" d="M26.9141 34.7265C31.4974 34.7265 36.0807 34.7265 40.6641 34.7265C39.7889 35.6983 38.6952 36.2843 37.3828 36.4843C35.4069 36.7189 33.4538 36.6017 31.5234 36.1328C31.2765 36.7712 31.016 37.3962 30.7422 38.0078C29.8307 38.0078 28.9193 38.0078 28.0078 38.0078C28.4136 37.2472 28.7522 36.4529 29.0234 35.625C29.0121 35.5647 28.9861 35.5125 28.9453 35.4687C28.2455 35.2575 27.5684 35.01 26.9141 34.7265Z" fill="#00B9E4"/>
<path fill-rule="evenodd" clip-rule="evenodd" d="M19.1016 38.0078C20.0391 38.0078 20.9766 38.0078 21.9141 38.0078C22.1817 38.5175 22.4681 39.0123 22.7734 39.4922C21.7838 39.4922 20.7943 39.4922 19.8047 39.4922C19.549 39.0068 19.3146 38.512 19.1016 38.0078Z" fill="#00B4E6"/>
<path fill-rule="evenodd" clip-rule="evenodd" d="M28.0078 38.0078C28.9193 38.0078 29.8307 38.0078 30.7422 38.0078C30.5816 38.5439 30.3472 39.0387 30.0391 39.4922C29.0755 39.4922 28.112 39.4922 27.1484 39.4922C27.4661 39.0175 27.7526 38.5228 28.0078 38.0078Z" fill="#00B4E6"/>
<path fill-rule="evenodd" clip-rule="evenodd" d="M19.8047 39.4922C20.7943 39.4922 21.7838 39.4922 22.7734 39.4922C24.2318 41.3672 25.6901 41.3672 27.1484 39.4922C28.112 39.4922 29.0755 39.4922 30.0391 39.4922C29.653 40.3432 29.1321 41.0984 28.4766 41.7578C26.1588 41.7578 23.8412 41.7578 21.5234 41.7578C20.833 41.0932 20.2601 40.3379 19.8047 39.4922Z" fill="#00B0E8"/>
<path fill-rule="evenodd" clip-rule="evenodd" d="M21.5234 41.7578C23.8412 41.7578 26.1588 41.7578 28.4766 41.7578C26.5064 43.7137 24.371 43.909 22.0703 42.3437C21.872 42.1586 21.6897 41.9633 21.5234 41.7578Z" fill="#00ADE9"/>
</g>
</svg>
