<svg width="50" height="50" viewBox="0 0 50 50" fill="none" xmlns="http://www.w3.org/2000/svg">
<rect width="50" height="50" fill="white"/>
<path fill-rule="evenodd" clip-rule="evenodd" d="M27.0703 9.57032C27.9577 9.56359 28.8431 9.60266 29.7266 9.68751C30.797 9.81791 31.7214 10.2476 32.5 10.9766C33.0517 11.6939 33.234 12.5012 33.0469 13.3984C32.8874 14.2416 32.5749 15.0228 32.1094 15.7422C31.064 17.2306 29.827 18.5456 28.3985 19.6875C25.0905 22.2266 21.3926 23.9713 17.3047 24.9219C15.5669 25.2966 13.8221 25.3487 12.0703 25.0781C9.44464 24.3187 8.65037 22.665 9.68752 20.1172C10.6447 18.3498 11.9077 16.8263 13.4766 15.5469C17.4564 12.306 21.9876 10.3138 27.0703 9.57032Z" fill="#EF0F13"/>
<path fill-rule="evenodd" clip-rule="evenodd" d="M39.6484 11.9141C37.9013 12.2747 36.1566 12.6524 34.4141 13.0469C34.3706 13.0768 34.3446 13.1159 34.3359 13.1641C34.3099 13.1641 34.2838 13.1641 34.2578 13.1641C33.6005 11.9155 32.8714 10.7046 32.0703 9.53125C33.6461 9.87321 35.2086 10.2899 36.7578 10.7812C37.7569 11.0921 38.7205 11.4697 39.6484 11.9141Z" fill="#F3655E"/>
<path opacity="0.987" fill-rule="evenodd" clip-rule="evenodd" d="M39.6484 11.9141C39.8886 11.9767 40.123 12.0549 40.3516 12.1484C42.74 13.1233 43.8077 14.8941 43.5547 17.4609C43.5039 17.4847 43.4518 17.5107 43.3984 17.5391C40.428 16.1059 37.4592 14.6736 34.4922 13.2422C34.4401 13.2162 34.388 13.1901 34.3359 13.1641C34.3446 13.1159 34.3706 13.0768 34.4141 13.0469C36.1566 12.6524 37.9013 12.2747 39.6484 11.9141Z" fill="#9B0A0E"/>
<path fill-rule="evenodd" clip-rule="evenodd" d="M34.2578 13.1641C34.2838 13.1641 34.3099 13.1641 34.3359 13.1641C34.388 13.1901 34.4401 13.2162 34.4922 13.2422C36.7037 16.5741 38.9173 19.9075 41.1328 23.2422C37.1751 22.3791 33.2428 21.4416 29.3359 20.4297C30.9573 17.9943 32.5979 15.5724 34.2578 13.1641Z" fill="#EE0E13"/>
<path fill-rule="evenodd" clip-rule="evenodd" d="M34.4922 13.2422C37.4592 14.6736 40.428 16.1059 43.3984 17.5391C43.4518 17.5107 43.5039 17.4847 43.5547 17.4609C43.5547 17.487 43.5547 17.513 43.5547 17.5391C43.366 18.8341 42.9754 20.058 42.3828 21.2109C42.0053 21.9141 41.5887 22.5913 41.1328 23.2422C38.9173 19.9075 36.7037 16.5741 34.4922 13.2422Z" fill="#950C10"/>
<path fill-rule="evenodd" clip-rule="evenodd" d="M29.2578 20.5078C29.2578 20.7162 29.2578 20.9245 29.2578 21.1328C28.9889 25.0886 28.7545 29.0469 28.5547 33.0078C28.5026 33.2422 28.4505 33.4766 28.3984 33.7109C24.8828 31.2109 21.3672 28.7109 17.8516 26.2109C17.7695 26.1545 17.7173 26.0764 17.6953 25.9766C21.5495 24.1537 25.4037 22.3307 29.2578 20.5078Z" fill="#EE0E13"/>
<path fill-rule="evenodd" clip-rule="evenodd" d="M29.3359 20.4297C33.2428 21.4416 37.1751 22.3791 41.1328 23.2422C39.7503 25.3288 38.0837 27.1777 36.1328 28.7891C33.928 26.0495 31.6754 23.3412 29.375 20.6641C29.3601 20.8366 29.321 20.9928 29.2578 21.1328C29.2578 20.9245 29.2578 20.7162 29.2578 20.5078C29.2578 20.4557 29.2838 20.4297 29.3359 20.4297Z" fill="#9B0A0E"/>
<path fill-rule="evenodd" clip-rule="evenodd" d="M36.1328 28.7891C33.8222 30.7009 31.3222 32.3415 28.6328 33.7109C28.556 33.4822 28.5299 33.2478 28.5547 33.0078C28.7546 29.0469 28.9889 25.0886 29.2578 21.1328C29.321 20.9928 29.3601 20.8366 29.375 20.6641C31.6754 23.3412 33.928 26.0495 36.1328 28.7891Z" fill="#950C10"/>
<path fill-rule="evenodd" clip-rule="evenodd" d="M42.3828 21.2109C39.638 28.2995 36.8776 35.3828 34.1016 42.4609C34.0516 42.4143 34.0256 42.3492 34.0234 42.2656C34.7563 37.777 35.4595 33.2848 36.1328 28.7891C38.0837 27.1777 39.7503 25.3288 41.1328 23.2422C41.5887 22.5913 42.0053 21.9141 42.3828 21.2109Z" fill="#ED1014"/>
<path fill-rule="evenodd" clip-rule="evenodd" d="M17.6172 25.9766C15.3326 29.3733 13.0279 32.7587 10.7031 36.1328C10.4788 36.4205 10.3095 36.733 10.1953 37.0703C10.1178 37.0838 10.0658 37.0577 10.0391 36.9922C10.0896 36.9317 10.1157 36.8536 10.1172 36.7578C9.75842 33.4277 9.4329 30.0945 9.14062 26.7578C9.10103 26.3368 9.03592 25.9201 8.94531 25.5078C8.86545 25.5355 8.81336 25.5877 8.78906 25.6641C7.84942 26.6297 6.91192 27.5932 5.97656 28.5547C6.29311 27.2628 6.67071 25.9868 7.10938 24.7266C7.55024 23.4542 8.13618 22.2563 8.86719 21.1328C8.94255 22.5644 8.99463 23.9967 9.02344 25.4297C11.884 25.6673 14.7486 25.8495 17.6172 25.9766Z" fill="#F4645D"/>
<path fill-rule="evenodd" clip-rule="evenodd" d="M10.0391 36.9922C9.55355 36.8824 9.0848 36.7262 8.63281 36.5234C7.71003 35.311 6.98086 33.9829 6.44531 32.5391C6.44382 32.4172 6.41778 32.3 6.36719 32.1875C7.18969 30.0347 8.02302 27.8863 8.86719 25.7422C8.85753 25.6948 8.83149 25.6687 8.78906 25.6641C8.81336 25.5877 8.86545 25.5355 8.94531 25.5078C9.03592 25.9201 9.10103 26.3368 9.14062 26.7578C9.4329 30.0945 9.75842 33.4277 10.1172 36.7578C10.1157 36.8536 10.0896 36.9317 10.0391 36.9922Z" fill="#9C0D0F"/>
<path fill-rule="evenodd" clip-rule="evenodd" d="M8.78906 25.6641C8.83149 25.6687 8.85753 25.6948 8.86719 25.7422C8.02302 27.8863 7.18969 30.0347 6.36719 32.1875C6.41778 32.3 6.44382 32.4172 6.44531 32.5391C6.05168 31.7227 5.76522 30.8634 5.58594 29.9609C5.66922 29.4706 5.79943 29.0019 5.97656 28.5547C6.91192 27.5932 7.84942 26.6297 8.78906 25.6641Z" fill="#960F11"/>
<path fill-rule="evenodd" clip-rule="evenodd" d="M17.6172 25.9766C17.6432 25.9766 17.6693 25.9766 17.6953 25.9766C17.7173 26.0764 17.7695 26.1545 17.8516 26.2109C17.7618 26.2337 17.7097 26.2987 17.6953 26.4062C18.3009 29.9232 18.9259 33.4258 19.5703 36.9141C19.579 36.9623 19.605 37.0013 19.6484 37.0312C24.3331 38.8311 28.9946 40.667 33.6328 42.5391C25.8139 40.7405 18.0014 38.9177 10.1953 37.0703C10.3095 36.733 10.4788 36.4205 10.7031 36.1328C13.0279 32.7587 15.3326 29.3733 17.6172 25.9766Z" fill="#9B0C0F"/>
<path fill-rule="evenodd" clip-rule="evenodd" d="M17.8516 26.2109C21.3672 28.7109 24.8828 31.2109 28.3984 33.7109C28.3984 33.763 28.3984 33.8151 28.3984 33.8672C25.5886 35.2587 22.6459 36.2743 19.5703 36.9141C18.9259 33.4258 18.3009 29.9232 17.6953 26.4062C17.7097 26.2987 17.7618 26.2337 17.8516 26.2109Z" fill="#950C10"/>
<path fill-rule="evenodd" clip-rule="evenodd" d="M36.1328 28.7891C35.4595 33.2848 34.7563 37.777 34.0234 42.2656C34.0256 42.3492 34.0516 42.4143 34.1016 42.4609C34.0755 42.5391 34.0234 42.5912 33.9453 42.6172C32.2348 39.796 30.5031 36.9835 28.75 34.1797C28.6816 34.0129 28.5644 33.9087 28.3984 33.8672C28.3984 33.8151 28.3984 33.763 28.3984 33.7109C28.4505 33.4766 28.5026 33.2422 28.5547 33.0078C28.5299 33.2478 28.5559 33.4822 28.6328 33.7109C31.3222 32.3415 33.8222 30.7009 36.1328 28.7891Z" fill="#9B0A0E"/>
<path fill-rule="evenodd" clip-rule="evenodd" d="M28.3984 33.8672C28.5644 33.9087 28.6816 34.0129 28.75 34.1797C30.5031 36.9835 32.2348 39.796 33.9453 42.6172C33.8204 42.6381 33.7162 42.612 33.6328 42.5391C28.9946 40.667 24.3331 38.8311 19.6484 37.0312C19.605 37.0013 19.579 36.9623 19.5703 36.9141C22.6459 36.2743 25.5886 35.2587 28.3984 33.8672Z" fill="#F4645D"/>
</svg>
