<svg width="50" height="50" viewBox="0 0 50 50" fill="none" xmlns="http://www.w3.org/2000/svg">
<rect width="50" height="50" fill="white"/>
<path opacity="0.982" fill-rule="evenodd" clip-rule="evenodd" d="M44.9609 38.9453C44.9609 39.6224 44.9609 40.2995 44.9609 40.9766C44.8667 41.4816 44.7105 41.9763 44.4922 42.4609C43.7476 41.521 42.8882 40.7007 41.9141 40C40.4109 39.0797 38.8223 38.8974 37.1484 39.4531C35.6213 40.1777 34.0848 40.8808 32.5391 41.5625C30.1033 42.3842 27.6033 42.6707 25.0391 42.4219C19.2212 41.9465 14.143 39.7851 9.80469 35.9375C7.92271 34.2878 6.30812 32.4259 4.96094 30.3516C4.96094 30.2995 4.96094 30.2474 4.96094 30.1953C7.51358 31.836 10.248 33.099 13.1641 33.9844C17.2798 35.148 21.3683 35.0698 25.4297 33.75C26.0995 33.4933 26.7505 33.1938 27.3828 32.8516C27.487 32.7995 27.487 32.7474 27.3828 32.6953C26.0769 31.7933 24.8269 30.8167 23.6328 29.7656C19.8815 26.093 16.3268 22.2518 12.9688 18.2422C11.4859 16.4739 10.0406 14.677 8.63281 12.8516C8.64584 12.8255 8.65885 12.7995 8.67188 12.7734C12.5837 16.0348 16.6072 19.1468 20.7422 22.1094C21.8503 22.8966 22.9962 23.5998 24.1797 24.2188C22.171 22.1328 20.3091 19.9323 18.5938 17.6172C16.9115 15.3854 15.2578 13.1328 13.6328 10.8594C16.591 13.5262 19.6379 16.1043 22.7734 18.5938C26.1539 21.193 29.5784 23.7321 33.0469 26.2109C34.1472 23.2698 34.4076 20.249 33.8281 17.1484C33.1614 13.5895 31.7421 10.3733 29.5703 7.5C33.214 9.70994 36.2999 12.5615 38.8281 16.0547C41.6099 19.9941 42.7558 24.3691 42.2656 29.1797C42.1426 30.1406 41.9213 31.0781 41.6016 31.9922C42.0654 32.7041 42.5471 33.4073 43.0469 34.1016C44.0014 35.5992 44.6395 37.2138 44.9609 38.9453Z" fill="#FE5721"/>
</svg>
