<svg width="50" height="50" viewBox="0 0 50 50" fill="none" xmlns="http://www.w3.org/2000/svg">
<rect width="50" height="50" fill="white"/>
<path fill-rule="evenodd" clip-rule="evenodd" d="M8.08594 4.96094C19.3359 4.96094 30.5859 4.96094 41.8359 4.96094C43.4766 5.40365 44.5182 6.44531 44.9609 8.08594C44.9609 19.3359 44.9609 30.5859 44.9609 41.8359C44.5182 43.4766 43.4766 44.5182 41.8359 44.9609C30.5859 44.9609 19.3359 44.9609 8.08594 44.9609C6.44531 44.5182 5.40365 43.4766 4.96094 41.8359C4.96094 30.5859 4.96094 19.3359 4.96094 8.08594C5.40365 6.44531 6.44531 5.40365 8.08594 4.96094Z" fill="#3178C6"/>
<path fill-rule="evenodd" clip-rule="evenodd" d="M35.5078 23.5547C37.3423 23.4617 39.1392 23.6701 40.8985 24.1797C40.9115 25.4039 40.8985 26.6279 40.8594 27.8516C39.2853 26.9016 37.5796 26.5239 35.7422 26.7188C34.9598 26.8296 34.3478 27.2072 33.9063 27.8516C33.6875 28.7301 33.961 29.4202 34.7266 29.9219C36.2346 30.6759 37.745 31.4311 39.2578 32.1875C41.2548 33.4624 42.0231 35.2723 41.5625 37.6172C41.0914 39.5207 39.9065 40.7316 38.0078 41.25C35.6058 41.8331 33.2099 41.8071 30.8203 41.1719C30.4722 41.0515 30.1337 40.9083 29.8047 40.7422C29.7136 39.4409 29.7006 38.1389 29.7657 36.836C31.903 38.5589 34.2597 38.9625 36.836 38.0469C37.8069 37.0872 37.7549 36.1757 36.6797 35.3125C36.4319 35.1757 36.1975 35.0194 35.9766 34.8438C34.6845 34.2744 33.4085 33.6755 32.1485 33.0469C30.2282 31.8492 29.4079 30.1175 29.6875 27.8516C30.2156 25.761 31.5307 24.446 33.6328 23.9063C34.266 23.7717 34.891 23.6545 35.5078 23.5547Z" fill="#FDFEFE"/>
<path fill-rule="evenodd" clip-rule="evenodd" d="M19.1797 41.4453C19.1797 36.6797 19.1797 31.9141 19.1797 27.1484C17.513 27.1484 15.8463 27.1484 14.1797 27.1484C14.1797 26.0807 14.1797 25.013 14.1797 23.9453C18.8412 23.9453 23.5026 23.9453 28.1641 23.9453C28.1641 25.013 28.1641 26.0807 28.1641 27.1484C26.4974 27.1484 24.8307 27.1484 23.1641 27.1484C23.1641 31.9141 23.1641 36.6797 23.1641 41.4453C21.8359 41.4453 20.5078 41.4453 19.1797 41.4453Z" fill="#FEFEFE"/>
</svg>
